<svg viewBox="0 0 451 61" xmlns="http://www.w3.org/2000/svg">
  <path fill="#fff" d="M68.25 3.69c10.16.07 20.33.07 30.5 0-.01 2.51-.01 5.01 0 7.52-7.06-.07-14.12-.02-21.18-.03 0 4.92-.01 9.84.01 14.76 6.26.01 12.52 0 18.77.01 0 2.48 0 4.96.02 7.45-6.27-.04-12.55 0-18.82-.03.02 4.98.05 9.97-.01 14.95 7.18-.14 14.37-.03 21.55-.06-.01 2.49-.01 4.99 0 7.48-10.3.05-20.62-.11-30.92.09.2-17.38.05-34.76.08-52.14zm66.6 1.65c7.51-3.31 16.41-2.93 23.9.23.33 3.07.33 6.15.32 9.24-1.24-.68-2.48-1.34-3.72-2.01-5.37-1.63-11.21-1.8-16.54.04-3.39 1.86-6.1 4.6-8 7.96-2.51 6.81-2.55 15.3 2.26 21.14 6.25 7.58 18.28 7.37 26.04 2.29-.03 3.05-.02 6.1-.03 9.15-8.03 4-17.82 3.79-25.93.11-1.25-.73-2.5-1.46-3.74-2.19l-.12-.16c-1.96-1.52-3.67-3.33-5.29-5.2-5.78-8.8-6.25-20.5-1.57-29.88 1.4-2.2 3.05-4.23 4.78-6.17l.15-.15c1.36-.97 2.71-1.98 4.12-2.88l.38-.69c.39.09 1.18.27 1.58.36l.4-1.45 1.01.26zm47.4 8.82c6.37-10.62 20.87-14.18 31.84-8.96.18.03.56.1.75.14 1.38.91 2.73 1.87 4.06 2.86l1.15.71c1.6 1.92 3.06 3.95 4.45 6.03 4.18 9.09 4.24 19.89.04 28.99a65.122 65.122 0 0 1-4.48 6.11c-.3.19-.9.58-1.2.77-1.32 1.02-2.7 1.97-4.09 2.89l-.66.14c-7.3 3.38-16.19 3.1-23.26-.72-3.62-1.85-6.17-5.13-8.63-8.26l.28-1.32-.97-.2c-3.78-8.73-3.69-18.92.02-27.66l.91-.19c-.05-.33-.16-1-.21-1.33m16.41-2.45c-1.37.75-2.75 1.49-4.13 2.2l.01.62-1.01-.02-.16.57c-1.34 1.79-2.49 3.72-3.58 5.66-1.46 5.71-1.61 11.77.06 17.46.35.71.67 1.43.98 2.16.85 1.18 1.71 2.36 2.6 3.52l.1.63 1.03-.07-.04.64c1.38.72 2.75 1.46 4.11 2.21 3.93.78 7.98.48 11.7-1.01 1.78-1.54 3.44-3.21 4.96-5.01 3.16-6.87 3.1-14.79.84-21.92l-.93-.23c.09-.3.26-.91.35-1.22-1.69-1.81-3.44-3.57-5.33-5.17-3.68-1.51-7.68-1.71-11.56-1.02zM3.51 3.72c9.47.42 19.38-1.27 28.44 2.31.98.52 1.97 1.02 2.97 1.51 3.73 2.39 6.89 5.65 9.07 9.52 3.65 7.82 3.83 17.39-.3 25.06.02.25.04.75.06 1l-.59.43c-2.14 3.91-5.51 6.84-9.29 9.11-.19.03-.57.09-.76.13-9.21 4.56-19.79 2.42-29.66 2.99.15-17.35.03-34.71.06-52.06m9.58 7.87c0 12.12-.06 24.23.04 36.34 5.53.04 11.57.65 16.49-2.45 5.48-3.39 7.75-10.25 7.42-16.43.41-6.49-3.18-13.28-9.26-15.9-4.62-1.96-9.78-1.62-14.69-1.56zm241.31.19c7.52.31 15.17-.74 22.56 1.05 4.75 2.02 8.62 6.92 7.47 12.31-.29 4.1-3.85 6.52-6.82 8.78.84.23 2.51.68 3.35.91 4.32 3.03 6.04 9.12 3.77 13.91-.87 2.33-3.02 3.79-4.8 5.38-8.22 2.92-17.08 1.08-25.6 1.68.18-14.67.04-29.35.07-44.02m7.84 6.36c-.08 4.11-.06 8.23-.03 12.34 4.85-.01 10.77.56 14.04-3.87.43-2.45.59-5.45-1.78-7.01-3.61-2.3-8.19-1.3-12.23-1.46m-.08 18.5c0 4.28-.01 8.57.01 12.85 5.18-.23 11.29 1.24 15.28-3.04.31-2.42.2-4.84-.14-7.25l-1.31.74.72-1.42-1.36.22.37-.88c-4.38-1.5-9.02-1.24-13.57-1.22zm43.24-24.86c2.59.03 5.17.02 7.76.02.02 12.35-.05 24.69.03 37.03 5.76.07 11.53.03 17.29.03 0 2.31.01 4.62.08 6.92-8.41-.06-16.82-.09-25.23.02.18-14.67.04-29.34.07-44.02zm53.63 1.14c5-1.98 10.56-2.27 15.79-1.03 1.03.4 2.06.8 3.1 1.2 2.77 1.43 5.13 3.52 7.08 5.94.71 1.36 1.42 2.71 2.16 4.06 2.28 6.34 2.43 13.35.46 19.8-1.73 4.4-4.7 8.24-8.72 10.77-.2.04-.59.11-.79.14-5.74 3-12.77 2.97-18.69.49-3.85-1.6-6.65-4.87-8.98-8.22-3.51-7.79-3.83-17.18.13-24.85 1.83-3.61 5.01-6.3 8.46-8.3m2.72 6.83c-.99.99-1.97 1.98-2.93 2.99-.66 1.33-1.34 2.66-2.03 3.98-.95 4.52-.93 9.17-.03 13.7 1.37 2.63 2.68 5.58 5.44 7.04 4.01 2.35 9.04 1.76 13.09-.17 5.61-4.86 6.16-12.87 4.89-19.71-.4-.91-.78-1.83-1.14-2.76-.63-.99-1.26-1.97-1.88-2.96-.27-.23-.8-.71-1.06-.95-.98-.71-1.95-1.42-2.91-2.14-3.83-.98-7.86-.76-11.44.98zm60.93-7.43c6.77-2.16 14.22-1.44 20.7 1.33.02 2.57.01 5.14.06 7.72-.82-.33-2.47-.99-3.3-1.32-.94-.4-1.87-.81-2.8-1.24-4.7-.63-9.93-1.35-14.23 1.16-2.29 1.15-3.92 3.18-5.69 4.96.13.31.4.92.53 1.23l-1.1.15c-1.86 6.34-1.71 13.73 2.94 18.87 4.87 4.52 11.94 4.34 18.03 3.03.11-3.71.08-7.43.05-11.14-2.72-.04-5.43-.05-8.14-.28.02-2.16.02-4.31.01-6.47 5.28.01 10.57.05 15.85-.03-.2 7.17.12 14.34-.15 21.51-.58.45-1.76 1.34-2.34 1.79-8.65 3.66-19.04 3.58-27.08-1.56-2.75-2.22-4.99-4.95-6.59-8.1-1.85-5.08-2.67-10.66-1.27-15.96 1.45-7.38 7.38-13.5 14.52-15.65z" />
</svg>
